<?xml version="1.0" encoding="utf-8"?>
<!-- Generator: Adobe Illustrator 22.1.0, SVG Export Plug-In . SVG Version: 6.00 Build 0)  -->
<svg version="1.1" id="Layer_1" xmlns="http://www.w3.org/2000/svg" xmlns:xlink="http://www.w3.org/1999/xlink" x="0px" y="0px"
	 viewBox="0 0 216 216" style="enable-background:new 0 0 216 216;" xml:space="preserve">
<style type="text/css">
	.st0{fill:#151D28;}
</style>
<g>
	<path class="st0" d="M35.5,91L23,95.1c-0.5,0.2-0.8,0.6-0.8,1.1v34.8c0,0.5,0.3,0.7,0.8,0.6l5.1-1.6c0.6-0.2,0.8-0.6,0.8-1.1v-10.4
		l6.6-2.2c4.9-1.6,7.5-5.1,7.5-9.9V96.1C43,91.2,40.4,89.4,35.5,91z M36.2,107.2c0,1.3-0.7,2.3-2.1,2.8l-5.2,1.7V99.9l5.2-1.7
		c1.4-0.5,2.1,0.1,2.1,1.4V107.2z"/>
	<path class="st0" d="M61,82.7l-5.8,1.9c-4.9,1.6-7.5,5-7.5,9.9V116c0,4.9,2.6,6.6,7.5,5.1l5.8-1.9c4.9-1.6,7.5-5,7.5-9.9V87.8
		C68.5,82.9,65.9,81.1,61,82.7z M61.9,110c0,1.4-0.7,2.3-2.1,2.8l-3.3,1.1c-1.4,0.4-2.1,0-2.1-1.4V93.6c0-1.4,0.7-2.3,2.1-2.8
		l3.3-1.1c1.4-0.4,2.1,0.1,2.1,1.4V110z"/>
	<path class="st0" d="M91.9,103.1c0-0.5-0.3-0.7-0.8-0.6l-10.3,3.3V77.1c0-0.5-0.3-0.7-0.8-0.6l-5.4,1.8c-0.5,0.2-0.8,0.6-0.8,1.1
		v34.8c0,0.6,0.3,0.7,0.8,0.6l16.5-5.4c0.6-0.2,0.8-0.5,0.8-1.1V103.1z"/>
	<path class="st0" d="M121.4,98.6l-8.6-32c-0.1-0.5-0.4-0.6-0.9-0.4l-7.2,2.4c-0.5,0.2-0.8,0.5-0.9,1l-8.6,37.6
		c-0.2,0.6,0.1,0.9,0.7,0.7l5.1-1.7c0.5-0.2,0.7-0.5,0.8-1l1.6-7.1l9.8-3.2l1.7,6c0.1,0.4,0.4,0.6,0.8,0.5l5-1.6
		C121.2,99.6,121.5,99.2,121.4,98.6z M104.9,91.5l3.3-15.2l3.3,13.1L104.9,91.5z"/>
	<path class="st0" d="M145.7,90.7L143,80.4c1.9-1.8,2.9-4.3,2.9-7.3V62.6c0-4.9-2.6-6.6-7.5-5.1l-12.5,4.1c-0.5,0.2-0.8,0.6-0.8,1.1
		v34.8c0,0.5,0.3,0.7,0.8,0.6l5.1-1.7c0.5-0.2,0.8-0.6,0.8-1.1V85.1l4.6-1.5l2.5,9.4c0.1,0.4,0.4,0.6,0.9,0.4l5.1-1.7
		C145.5,91.7,145.8,91.3,145.7,90.7z M139.1,74c0,1.4-0.7,2.3-2.1,2.8l-5.2,1.7v-12l5.2-1.7c1.4-0.4,2.1,0.1,2.1,1.4V74z"/>
	<path class="st0" d="M56.7,127.9l-12.5,4.1c-0.5,0.2-0.8,0.6-0.8,1.1v34.8c0,0.5,0.3,0.7,0.8,0.6l5.1-1.6c0.6-0.2,0.8-0.6,0.8-1.1
		v-10.4l6.6-2.2c4.9-1.6,7.5-5.1,7.5-9.9v-10.2C64.2,128,61.6,126.3,56.7,127.9z M57.5,144c0,1.3-0.7,2.3-2.1,2.8l-5.2,1.7v-11.8
		l5.2-1.7c1.4-0.5,2.1,0.1,2.1,1.4V144z"/>
	<path class="st0" d="M86.8,147.6L76.5,151v-28.7c0-0.5-0.3-0.7-0.8-0.6l-5.4,1.8c-0.5,0.2-0.8,0.6-0.8,1.1v34.8
		c0,0.6,0.3,0.7,0.8,0.6l16.5-5.4c0.6-0.2,0.8-0.5,0.8-1.1v-5.2C87.6,147.7,87.4,147.5,86.8,147.6z"/>
	<path class="st0" d="M111.6,110l-4.8,1.6c-0.6,0.2-1,0.8-1,1.4v26.4c0,1.4-0.7,2.3-2.1,2.8L101,143c-1.4,0.4-2.1,0-2.1-1.4v-26.4
		c0-0.6-0.5-0.9-1-0.7l-5,1.6c-0.6,0.2-1,0.8-1,1.4v27.9c0,4.9,2.6,6.6,7.5,5.1l5.8-1.9c4.9-1.6,7.5-5,7.5-9.9v-27.9
		C112.6,110.2,112.2,109.8,111.6,110z"/>
	<path class="st0" d="M139.2,101.1l-4.9,1.6c-0.6,0.2-0.8,0.6-0.8,1.1v19.7l-9.8-16.7c-0.2-0.4-0.5-0.5-0.9-0.4l-4.1,1.3
		c-0.5,0.2-0.8,0.6-0.8,1.1v34.8c0,0.5,0.3,0.7,0.8,0.6l4.9-1.6c0.6-0.2,0.8-0.6,0.8-1.1v-19.7l9.8,16.7c0.2,0.4,0.5,0.5,0.9,0.4
		l4.1-1.3c0.5-0.2,0.8-0.6,0.8-1.1v-34.8C140,101.1,139.7,100.9,139.2,101.1z"/>
	<path class="st0" d="M158.6,94.8l-5.8,1.9c-4.9,1.6-7.5,5-7.5,9.9V128c0,4.9,2.6,6.6,7.5,5.1l5.8-1.9c4.8-1.6,7.5-5,7.5-9.9v-11.9
		c0-0.6-0.3-0.7-0.8-0.6l-8.4,2.7c-0.6,0.2-0.8,0.5-0.8,1.1v5.2c0,0.5,0.3,0.7,0.8,0.6l2.7-0.9v4.5c0,1.4-0.7,2.3-2.1,2.8l-3.3,1.1
		c-1.4,0.4-2.1,0-2.1-1.4v-18.8c0-1.4,0.7-2.3,2.1-2.8l3.3-1.1c1.4-0.4,2.1,0.1,2.1,1.4v2.6c0,0.5,0.3,0.7,0.8,0.6l4.9-1.6
		c0.5-0.2,0.8-0.6,0.8-1.1v-3.9C166.1,94.9,163.4,93.2,158.6,94.8z"/>
	<path class="st0" d="M191.2,91.1c0.6-0.2,0.8-0.6,0.8-1.2v-5.2c0-0.5-0.2-0.8-0.8-0.6L172,90.4c-0.5,0.2-0.8,0.6-0.8,1.1v34.8
		c0,0.5,0.3,0.7,0.8,0.6l19.2-6.2c0.6-0.2,0.8-0.6,0.8-1.1v-5.2c0-0.6-0.2-0.8-0.8-0.6l-12.9,4.2v-7.7l9.8-3.2
		c0.5-0.2,0.8-0.6,0.8-1.2v-5.2c0-0.6-0.3-0.8-0.8-0.6l-9.8,3.2v-8L191.2,91.1z"/>
	<path class="st0" d="M108,0C48.4,0,0,48.4,0,108s48.4,108,108,108c59.6,0,108-48.4,108-108S167.6,0,108,0z M108,211.3
		C51.1,211.3,4.7,164.9,4.7,108S51.1,4.7,108,4.7S211.3,51.1,211.3,108S164.9,211.3,108,211.3z"/>
</g>
</svg>
